<svg width="25" height="28" viewBox="0 0 25 28" fill="none" xmlns="http://www.w3.org/2000/svg">
<path d="M8.375 24.75C8.375 26.2625 7.1375 27.5 5.625 27.5C4.1125 27.5 2.88875 26.2625 2.88875 24.75C2.88875 23.2375 4.1125 22 5.625 22C7.1375 22 8.375 23.2375 8.375 24.75ZM19.375 22C17.8625 22 16.6388 23.2375 16.6388 24.75C16.6388 26.2625 17.8625 27.5 19.375 27.5C20.8875 27.5 22.125 26.2625 22.125 24.75C22.125 23.2375 20.8875 22 19.375 22ZM19.9195 15.125C20.5451 15.1249 21.1519 14.9115 21.6399 14.52C22.1278 14.1286 22.4677 13.5824 22.6035 12.9718L24.875 4.125H5.625V2.75C5.625 2.02065 5.33527 1.32118 4.81954 0.805456C4.30382 0.289731 3.60435 0 2.875 0H0.125V2.75H2.875V17.875C2.875 18.6043 3.16473 19.3038 3.68046 19.8195C4.19618 20.3353 4.89565 20.625 5.625 20.625H22.125C22.125 19.8957 21.8353 19.1962 21.3195 18.6805C20.8038 18.1647 20.1043 17.875 19.375 17.875H5.625V15.125H19.9195Z" fill="black"/>
</svg>
