<svg width="20" height="20" viewBox="0 0 20 20" fill="none" xmlns="http://www.w3.org/2000/svg">
<path d="M13.7369 14.7368C14.1556 14.7368 14.5572 14.9032 14.8533 15.1993C15.1495 15.4954 15.3158 15.897 15.3158 16.3158C15.3158 16.7345 15.1495 17.1361 14.8533 17.4322C14.5572 17.7283 14.1556 17.8947 13.7369 17.8947C13.3181 17.8947 12.9165 17.7283 12.6204 17.4322C12.3243 17.1361 12.1579 16.7345 12.1579 16.3158C12.1579 15.4394 12.8605 14.7368 13.7369 14.7368ZM1.10529 2.10522H3.68686L4.42897 3.68417H16.1053C16.3147 3.68417 16.5155 3.76735 16.6635 3.9154C16.8116 4.06346 16.8948 4.26426 16.8948 4.47365C16.8948 4.60786 16.8553 4.74207 16.8 4.86838L13.9737 9.97628C13.7053 10.4579 13.1842 10.7894 12.5921 10.7894H6.71055L6.00002 12.0763L5.97634 12.171C5.97634 12.2234 5.99713 12.2736 6.03415 12.3106C6.07116 12.3476 6.12136 12.3684 6.17371 12.3684H15.3158V13.9473H5.84213C5.42336 13.9473 5.02175 13.781 4.72564 13.4849C4.42953 13.1888 4.26318 12.7871 4.26318 12.3684C4.26318 12.0921 4.33423 11.8315 4.45265 11.6105L5.52634 9.67628L2.68423 3.68417H1.10529V2.10522ZM5.84213 14.7368C6.26089 14.7368 6.6625 14.9032 6.95861 15.1993C7.25472 15.4954 7.42107 15.897 7.42107 16.3158C7.42107 16.7345 7.25472 17.1361 6.95861 17.4322C6.6625 17.7283 6.26089 17.8947 5.84213 17.8947C5.42336 17.8947 5.02175 17.7283 4.72564 17.4322C4.42953 17.1361 4.26318 16.7345 4.26318 16.3158C4.26318 15.4394 4.96581 14.7368 5.84213 14.7368ZM12.9474 9.21049L15.1421 5.26312H5.16318L7.02634 9.21049H12.9474Z" fill="black"/>
</svg>
