<svg width="22" height="22" viewBox="0 0 22 22" fill="none" xmlns="http://www.w3.org/2000/svg">
<path d="M5.5 4.69334C5.12417 4.69334 4.8125 4.38167 4.8125 4.00584V2.40167C4.8125 2.02584 5.12417 1.71417 5.5 1.71417C5.87583 1.71417 6.1875 2.02584 6.1875 2.40167V4.00584C6.1875 4.39084 5.87583 4.69334 5.5 4.69334Z" fill="white"/>
<path d="M9.16669 4.69334C8.79085 4.69334 8.47919 4.38167 8.47919 4.00584V2.40167C8.47919 2.02584 8.79085 1.71417 9.16669 1.71417C9.54252 1.71417 9.85419 2.02584 9.85419 2.40167V4.00584C9.85419 4.39084 9.54252 4.69334 9.16669 4.69334Z" fill="white"/>
<path d="M12.8333 4.69334C12.4575 4.69334 12.1458 4.38167 12.1458 4.00584V2.40167C12.1458 2.02584 12.4575 1.71417 12.8333 1.71417C13.2091 1.71417 13.5208 2.02584 13.5208 2.40167V4.00584C13.5208 4.39084 13.2091 4.69334 12.8333 4.69334Z" fill="white"/>
<path d="M20.3959 12.1458C20.3959 9.74418 18.535 7.80084 16.1884 7.59918C15.51 6.49001 14.3 5.73834 12.9067 5.73834H6.15085C4.02419 5.73834 2.29169 7.47084 2.29169 9.59751V10.0833H16.7659V9.59751C16.7659 9.42334 16.7384 9.24918 16.7109 9.08418C18.04 9.47834 19.0209 10.6883 19.0209 12.1458C19.0209 13.585 18.0675 14.7858 16.7659 15.1892V11H2.29169V16.3075C2.29169 18.4342 4.02419 20.1667 6.15085 20.1667H12.9067C14.9234 20.1667 16.5642 18.6083 16.7292 16.6283C18.8192 16.2067 20.3959 14.355 20.3959 12.1458Z" fill="white"/>
</svg>
