<svg width="25" height="24" viewBox="0 0 25 24" fill="none" xmlns="http://www.w3.org/2000/svg">
<path opacity="0.4" d="M17.145 18.98H7.605C7.185 18.98 6.805 18.71 6.665 18.32L2.505 6.66998C2.175 5.73998 3.235 4.94998 4.025 5.51998L8.025 8.37998C8.555 8.75998 9.315 8.52998 9.545 7.91998L11.435 2.87998C11.755 2.00998 12.985 2.00998 13.305 2.87998L15.195 7.91998C15.425 8.53998 16.175 8.75998 16.715 8.37998L20.715 5.51998C21.515 4.94998 22.565 5.74998 22.235 6.66998L18.075 18.32C17.945 18.71 17.565 18.98 17.145 18.98Z" fill="black"/>
<path d="M17.375 22H7.375C6.965 22 6.625 21.66 6.625 21.25C6.625 20.84 6.965 20.5 7.375 20.5H17.375C17.785 20.5 18.125 20.84 18.125 21.25C18.125 21.66 17.785 22 17.375 22Z" fill="black"/>
<path d="M14.875 14.75H9.875C9.465 14.75 9.125 14.41 9.125 14C9.125 13.59 9.465 13.25 9.875 13.25H14.875C15.285 13.25 15.625 13.59 15.625 14C15.625 14.41 15.285 14.75 14.875 14.75Z" fill="black"/>
</svg>
