<svg width="24" height="24" viewBox="0 0 24 24" fill="none" xmlns="http://www.w3.org/2000/svg">
<g clip-path="url(#clip0_12_59)">
<path d="M20.04 8.71V4H15.34L12 0.690002L8.71 4H4V8.71L0.690002 12L4 15.34V20.04H8.71L12 23.35L15.34 20.04H20.04V15.34L23.35 12L20.04 8.71ZM8.83 7.05C9.81 7.05 10.6 7.84 10.6 8.83C10.6 9.29944 10.4135 9.74964 10.0816 10.0816C9.74964 10.4135 9.29944 10.6 8.83 10.6C7.84 10.6 7.05 9.81 7.05 8.83C7.05 7.84 7.84 7.05 8.83 7.05ZM15.22 17C14.24 17 13.45 16.2 13.45 15.22C13.45 14.7506 13.6365 14.3004 13.9684 13.9684C14.3004 13.6365 14.7506 13.45 15.22 13.45C16.2 13.45 17 14.24 17 15.22C17 15.6921 16.8125 16.1448 16.4787 16.4787C16.1448 16.8125 15.6921 17 15.22 17ZM8.5 17.03L7 15.53L15.53 7L17.03 8.5L8.5 17.03Z" fill="#FF0000"/>
</g>
<defs>
<clipPath id="clip0_12_59">
<rect width="24" height="24" fill="white"/>
</clipPath>
</defs>
</svg>
