<svg width="16" height="11" viewBox="0 0 16 11" fill="none" xmlns="http://www.w3.org/2000/svg">
<path d="M1.63599 3.63903C1.82351 3.51015 2.07782 3.43774 2.34299 3.43774C2.60815 3.43774 2.86246 3.51015 3.04999 3.63903L7.99999 7.04216L12.95 3.63903C13.1386 3.5138 13.3912 3.4445 13.6534 3.44607C13.9156 3.44764 14.1664 3.51994 14.3518 3.64741C14.5372 3.77488 14.6424 3.94731 14.6447 4.12757C14.6469 4.30783 14.5461 4.4815 14.364 4.61116L8.70699 8.50035C8.51946 8.62923 8.26515 8.70164 7.99999 8.70164C7.73482 8.70164 7.48052 8.62923 7.29299 8.50035L1.63599 4.61116C1.44852 4.48223 1.3432 4.3074 1.3432 4.1251C1.3432 3.9428 1.44852 3.76796 1.63599 3.63903Z" fill="#E0E0E0"/>
</svg>
