<svg width="30" height="30" viewBox="0 0 30 30" fill="none" xmlns="http://www.w3.org/2000/svg">
<mask id="mask0_23_1541" style="mask-type:luminance" maskUnits="userSpaceOnUse" x="1" y="1" width="28" height="28">
<path d="M24.375 3.75H5.625C5.12772 3.75 4.65081 3.94754 4.29917 4.29917C3.94754 4.65081 3.75 5.12772 3.75 5.625V24.375C3.75 24.8723 3.94754 25.3492 4.29917 25.7008C4.65081 26.0525 5.12772 26.25 5.625 26.25H24.375C24.8723 26.25 25.3492 26.0525 25.7008 25.7008C26.0525 25.3492 26.25 24.8723 26.25 24.375V5.625C26.25 5.12772 26.0525 4.65081 25.7008 4.29917C25.3492 3.94754 24.8723 3.75 24.375 3.75Z" fill="white" stroke="white" stroke-width="4" stroke-linejoin="round"/>
<path d="M15 17.8906V15.3906C15.7417 15.3906 16.4667 15.1707 17.0834 14.7586C17.7001 14.3466 18.1807 13.7609 18.4645 13.0757C18.7484 12.3905 18.8226 11.6365 18.6779 10.909C18.5333 10.1816 18.1761 9.51342 17.6517 8.98898C17.1272 8.46453 16.459 8.10738 15.7316 7.96268C15.0042 7.81799 14.2502 7.89225 13.5649 8.17608C12.8797 8.45991 12.294 8.94055 11.882 9.55724C11.4699 10.1739 11.25 10.8989 11.25 11.6406" stroke="black" stroke-width="4" stroke-linecap="round" stroke-linejoin="round"/>
<path fill-rule="evenodd" clip-rule="evenodd" d="M15 23.5156C15.4144 23.5156 15.8118 23.351 16.1049 23.058C16.3979 22.765 16.5625 22.3675 16.5625 21.9531C16.5625 21.5387 16.3979 21.1413 16.1049 20.8483C15.8118 20.5552 15.4144 20.3906 15 20.3906C14.5856 20.3906 14.1882 20.5552 13.8951 20.8483C13.6021 21.1413 13.4375 21.5387 13.4375 21.9531C13.4375 22.3675 13.6021 22.765 13.8951 23.058C14.1882 23.351 14.5856 23.5156 15 23.5156Z" fill="black"/>
</mask>
<g mask="url(#mask0_23_1541)">
<path d="M0 0H30V30H0V0Z" fill="black"/>
</g>
</svg>
