<svg width="10" height="10" viewBox="0 0 10 10" fill="none" xmlns="http://www.w3.org/2000/svg">
<path d="M4 2H6C6 1.73478 5.89464 1.48043 5.70711 1.29289C5.51957 1.10536 5.26522 1 5 1C4.73478 1 4.48043 1.10536 4.29289 1.29289C4.10536 1.48043 4 1.73478 4 2ZM3 2C3 1.46957 3.21071 0.960859 3.58579 0.585786C3.96086 0.210714 4.46957 0 5 0C5.53043 0 6.03914 0.210714 6.41421 0.585786C6.78929 0.960859 7 1.46957 7 2H9.5C9.63261 2 9.75979 2.05268 9.85355 2.14645C9.94732 2.24021 10 2.36739 10 2.5C10 2.63261 9.94732 2.75979 9.85355 2.85355C9.75979 2.94732 9.63261 3 9.5 3H9.059L8.616 8.17C8.57341 8.66923 8.34499 9.13429 7.97593 9.47317C7.60686 9.81205 7.12405 10.0001 6.623 10H3.377C2.87595 10.0001 2.39314 9.81205 2.02407 9.47317C1.65501 9.13429 1.42659 8.66923 1.384 8.17L0.941 3H0.5C0.367392 3 0.240215 2.94732 0.146447 2.85355C0.0526784 2.75979 0 2.63261 0 2.5C0 2.36739 0.0526784 2.24021 0.146447 2.14645C0.240215 2.05268 0.367392 2 0.5 2H3ZM6.5 5C6.5 4.86739 6.44732 4.74021 6.35355 4.64645C6.25979 4.55268 6.13261 4.5 6 4.5C5.86739 4.5 5.74021 4.55268 5.64645 4.64645C5.55268 4.74021 5.5 4.86739 5.5 5V7C5.5 7.13261 5.55268 7.25979 5.64645 7.35355C5.74021 7.44732 5.86739 7.5 6 7.5C6.13261 7.5 6.25979 7.44732 6.35355 7.35355C6.44732 7.25979 6.5 7.13261 6.5 7V5ZM4 4.5C3.86739 4.5 3.74021 4.55268 3.64645 4.64645C3.55268 4.74021 3.5 4.86739 3.5 5V7C3.5 7.13261 3.55268 7.25979 3.64645 7.35355C3.74021 7.44732 3.86739 7.5 4 7.5C4.13261 7.5 4.25979 7.44732 4.35355 7.35355C4.44732 7.25979 4.5 7.13261 4.5 7V5C4.5 4.86739 4.44732 4.74021 4.35355 4.64645C4.25979 4.55268 4.13261 4.5 4 4.5Z" fill="#FF0000"/>
</svg>
