<svg width="29" height="29" viewBox="0 0 29 29" fill="none" xmlns="http://www.w3.org/2000/svg">
<path d="M20.5416 2.4165H8.45831C6.40415 2.4165 4.83331 3.98734 4.83331 6.0415V13.2915H15.225L12.4458 10.5123C11.9625 10.029 11.9625 9.304 12.4458 8.82067C12.9291 8.33734 13.6541 8.33734 14.1375 8.82067L18.9708 13.654C19.4541 14.1373 19.4541 14.8623 18.9708 15.3457L14.1375 20.179C13.6541 20.6623 12.9291 20.6623 12.4458 20.179C11.9625 19.6957 11.9625 18.9707 12.4458 18.4873L15.225 15.7082H4.83331V22.9582C4.83331 25.0123 6.40415 26.5832 8.45831 26.5832H20.5416C22.5958 26.5832 24.1666 25.0123 24.1666 22.9582V6.0415C24.1666 3.98734 22.5958 2.4165 20.5416 2.4165Z" fill="#F90909"/>
</svg>
