<svg width="24" height="24" viewBox="0 0 24 24" fill="none" xmlns="http://www.w3.org/2000/svg">
<path d="M4 18H15C15.55 18 16 17.55 16 17C16 16.45 15.55 16 15 16H4C3.45 16 3 16.45 3 17C3 17.55 3.45 18 4 18ZM4 13H12C12.55 13 13 12.55 13 12C13 11.45 12.55 11 12 11H4C3.45 11 3 11.45 3 12C3 12.55 3.45 13 4 13ZM3 7C3 7.55 3.45 8 4 8H15C15.55 8 16 7.55 16 7C16 6.45 15.55 6 15 6H4C3.45 6 3 6.45 3 7ZM20.3 14.88L17.42 12L20.3 9.12C20.3926 9.02742 20.466 8.91751 20.5161 8.79654C20.5662 8.67558 20.592 8.54593 20.592 8.415C20.592 8.28407 20.5662 8.15442 20.5161 8.03346C20.466 7.91249 20.3926 7.80258 20.3 7.71C20.2074 7.61742 20.0975 7.54398 19.9765 7.49387C19.8556 7.44377 19.7259 7.41798 19.595 7.41798C19.4641 7.41798 19.3344 7.44377 19.2135 7.49387C19.0925 7.54398 18.9826 7.61742 18.89 7.71L15.3 11.3C15.2073 11.3925 15.1337 11.5024 15.0836 11.6234C15.0334 11.7443 15.0076 11.874 15.0076 12.005C15.0076 12.136 15.0334 12.2657 15.0836 12.3866C15.1337 12.5076 15.2073 12.6175 15.3 12.71L18.89 16.3C19.28 16.69 19.91 16.69 20.3 16.3C20.68 15.91 20.69 15.27 20.3 14.88Z" fill="black"/>
</svg>
