<svg width="25" height="24" viewBox="0 0 25 24" fill="none" xmlns="http://www.w3.org/2000/svg">
<path d="M7.125 5.75C6.715 5.75 6.375 5.41 6.375 5V2C6.375 1.59 6.715 1.25 7.125 1.25C7.535 1.25 7.875 1.59 7.875 2V5C7.875 5.41 7.535 5.75 7.125 5.75Z" fill="#FF4C1C"/>
<path d="M15.125 5.75C14.715 5.75 14.375 5.41 14.375 5V2C14.375 1.59 14.715 1.25 15.125 1.25C15.535 1.25 15.875 1.59 15.875 2V5C15.875 5.41 15.535 5.75 15.125 5.75Z" fill="#FF4C1C"/>
<path opacity="0.4" d="M20.125 8.5V17C20.125 20 18.625 22 15.125 22H7.125C3.625 22 2.125 20 2.125 17V8.5C2.125 5.5 3.625 3.5 7.125 3.5H15.125C18.625 3.5 20.125 5.5 20.125 8.5Z" fill="#FF4C1C"/>
<path d="M13.125 11.75H7.125C6.715 11.75 6.375 11.41 6.375 11C6.375 10.59 6.715 10.25 7.125 10.25H13.125C13.535 10.25 13.875 10.59 13.875 11C13.875 11.41 13.535 11.75 13.125 11.75Z" fill="#FF4C1C"/>
<path d="M10.125 16.75H7.125C6.715 16.75 6.375 16.41 6.375 16C6.375 15.59 6.715 15.25 7.125 15.25H10.125C10.535 15.25 10.875 15.59 10.875 16C10.875 16.41 10.535 16.75 10.125 16.75Z" fill="#FF4C1C"/>
<path d="M21.125 13.63C20.235 12.92 19.105 12.5 17.875 12.5C16.645 12.5 15.495 12.93 14.595 13.66C13.385 14.61 12.625 16.1 12.625 17.75C12.625 18.73 12.905 19.67 13.385 20.45C13.755 21.06 14.235 21.59 14.805 22C15.665 22.63 16.725 23 17.875 23C19.205 23 20.405 22.51 21.325 21.69C21.735 21.35 22.085 20.93 22.365 20.45C22.845 19.67 23.125 18.73 23.125 17.75C23.125 16.08 22.345 14.59 21.125 13.63ZM17.875 20.25C17.875 18.87 16.755 17.75 15.375 17.75C16.755 17.75 17.875 16.63 17.875 15.25C17.875 16.63 18.995 17.75 20.375 17.75C18.995 17.75 17.875 18.87 17.875 20.25Z" fill="#FF4C1C"/>
</svg>
