<svg width="32" height="32" viewBox="0 0 32 32" fill="none" xmlns="http://www.w3.org/2000/svg">
<path d="M10.3333 4.66663V2.66663C10.3333 2.11996 9.87998 1.66663 9.33331 1.66663C8.78665 1.66663 8.33331 2.11996 8.33331 2.66663V4.74663C8.66665 4.70663 8.97331 4.66663 9.33331 4.66663H10.3333Z" fill="black"/>
<path d="M21 4.74663V2.66663C21 2.11996 20.5467 1.66663 20 1.66663C19.4533 1.66663 19 2.11996 19 2.66663V4.66663H20C20.36 4.66663 20.6667 4.70663 21 4.74663Z" fill="black"/>
<path d="M28.3867 19.96C27.36 19.1466 26.0667 18.6666 24.6667 18.6666C23.2667 18.6666 21.9467 19.16 20.92 19.9866C19.5334 21.08 18.6667 22.7866 18.6667 24.6666C18.6667 25.7866 18.9867 26.8666 19.5334 27.7466C19.96 28.44 20.5067 29.0533 21.16 29.52C22.1467 30.24 23.3467 30.6666 24.6667 30.6666C26.1867 30.6666 27.56 30.1066 28.6134 29.1733C29.08 28.7866 29.48 28.3066 29.8 27.76C30.3467 26.8666 30.6667 25.7866 30.6667 24.6666C30.6667 22.76 29.7734 21.0533 28.3867 19.96ZM24.6667 27.52C24.6667 25.9466 23.3867 24.6666 21.8134 24.6666C23.3867 24.6666 24.6667 23.3866 24.6667 21.8133C24.6667 23.3866 25.9467 24.6666 27.52 24.6666C25.9467 24.6666 24.6667 25.9466 24.6667 27.52Z" fill="black"/>
<path d="M21 4.74663V6.66663C21 7.21329 20.5467 7.66663 20 7.66663C19.4534 7.66663 19 7.21329 19 6.66663V4.66663H10.3334V6.66663C10.3334 7.21329 9.88002 7.66663 9.33335 7.66663C8.78669 7.66663 8.33335 7.21329 8.33335 6.66663V4.74663C4.40002 5.10663 2.66669 7.63996 2.66669 11.3333V22.6666C2.66669 26.6666 4.66669 29.3333 9.33335 29.3333H14.84C15.8534 29.3333 16.5334 28.2 16.28 27.2133C16.0934 26.4933 16 25.7466 16 25C16 22.2266 17.24 19.6666 19.3867 17.9733C20.9467 16.7066 22.9467 16 25 16H25.0534C25.8934 16 26.6667 15.3866 26.6667 14.5466V11.3333C26.6667 7.63996 24.9334 5.10663 21 4.74663ZM12 22.3333H9.33335C8.78669 22.3333 8.33335 21.88 8.33335 21.3333C8.33335 20.7866 8.78669 20.3333 9.33335 20.3333H12C12.5467 20.3333 13 20.7866 13 21.3333C13 21.88 12.5467 22.3333 12 22.3333ZM16 15.6666H9.33335C8.78669 15.6666 8.33335 15.2133 8.33335 14.6666C8.33335 14.12 8.78669 13.6666 9.33335 13.6666H16C16.5467 13.6666 17 14.12 17 14.6666C17 15.2133 16.5467 15.6666 16 15.6666Z" fill="black"/>
</svg>
