<svg width="22" height="22" viewBox="0 0 22 22" fill="none" xmlns="http://www.w3.org/2000/svg">
<path d="M7.10419 3.20834V1.83334C7.10419 1.45751 6.79252 1.14584 6.41669 1.14584C6.04085 1.14584 5.72919 1.45751 5.72919 1.83334V3.26334C5.95835 3.23584 6.16919 3.20834 6.41669 3.20834H7.10419Z" fill="white"/>
<path d="M14.4375 3.26334V1.83334C14.4375 1.45751 14.1258 1.14584 13.75 1.14584C13.3742 1.14584 13.0625 1.45751 13.0625 1.83334V3.20834H13.75C13.9975 3.20834 14.2083 3.23584 14.4375 3.26334Z" fill="white"/>
<path d="M19.5158 13.7225C18.81 13.1633 17.9208 12.8333 16.9583 12.8333C15.9958 12.8333 15.0883 13.1725 14.3825 13.7408C13.4291 14.4925 12.8333 15.6658 12.8333 16.9583C12.8333 17.7283 13.0533 18.4708 13.4291 19.0758C13.7225 19.5525 14.0983 19.9742 14.5475 20.295C15.2258 20.79 16.0508 21.0833 16.9583 21.0833C18.0033 21.0833 18.9475 20.6983 19.6716 20.0567C19.9925 19.7908 20.2675 19.4608 20.4875 19.085C20.8633 18.4708 21.0833 17.7283 21.0833 16.9583C21.0833 15.6475 20.4691 14.4742 19.5158 13.7225ZM16.9583 18.92C16.9583 17.8383 16.0783 16.9583 14.9966 16.9583C16.0783 16.9583 16.9583 16.0783 16.9583 14.9967C16.9583 16.0783 17.8383 16.9583 18.92 16.9583C17.8383 16.9583 16.9583 17.8383 16.9583 18.92Z" fill="white"/>
<path d="M14.4375 3.26334V4.58334C14.4375 4.95918 14.1258 5.27084 13.75 5.27084C13.3741 5.27084 13.0625 4.95918 13.0625 4.58334V3.20834H7.10415V4.58334C7.10415 4.95918 6.79248 5.27084 6.41665 5.27084C6.04081 5.27084 5.72915 4.95918 5.72915 4.58334V3.26334C3.02498 3.51084 1.83331 5.25251 1.83331 7.79168V15.5833C1.83331 18.3333 3.20831 20.1667 6.41665 20.1667H10.2025C10.8991 20.1667 11.3666 19.3875 11.1925 18.7092C11.0641 18.2142 11 17.7008 11 17.1875C11 15.2808 11.8525 13.5208 13.3283 12.3567C14.4008 11.4858 15.7758 11 17.1875 11H17.2241C17.8016 11 18.3333 10.5783 18.3333 10.0008V7.79168C18.3333 5.25251 17.1416 3.51084 14.4375 3.26334ZM8.24998 15.3542H6.41665C6.04081 15.3542 5.72915 15.0425 5.72915 14.6667C5.72915 14.2908 6.04081 13.9792 6.41665 13.9792H8.24998C8.62581 13.9792 8.93748 14.2908 8.93748 14.6667C8.93748 15.0425 8.62581 15.3542 8.24998 15.3542ZM11 10.7708H6.41665C6.04081 10.7708 5.72915 10.4592 5.72915 10.0833C5.72915 9.70751 6.04081 9.39584 6.41665 9.39584H11C11.3758 9.39584 11.6875 9.70751 11.6875 10.0833C11.6875 10.4592 11.3758 10.7708 11 10.7708Z" fill="white"/>
</svg>
