<svg width="20" height="20" viewBox="0 0 20 20" fill="none" xmlns="http://www.w3.org/2000/svg">
<path d="M10.0167 2.42499C7.25833 2.42499 5.01666 4.66665 5.01666 7.42499V9.83332C5.01666 10.3417 4.8 11.1167 4.54166 11.55L3.58333 13.1417C2.99166 14.125 3.4 15.2167 4.48333 15.5833C8.075 16.7833 11.95 16.7833 15.5417 15.5833C16.55 15.25 16.9917 14.0583 16.4417 13.1417L15.4833 11.55C15.2333 11.1167 15.0167 10.3417 15.0167 9.83332V7.42499C15.0167 4.67499 12.7667 2.42499 10.0167 2.42499Z" stroke="black" stroke-width="2" stroke-miterlimit="10" stroke-linecap="round"/>
<path d="M11.5583 2.66667C11.3 2.59167 11.0333 2.53334 10.7583 2.5C9.95834 2.4 9.19167 2.45834 8.47501 2.66667C8.71667 2.05 9.31667 1.61667 10.0167 1.61667C10.7167 1.61667 11.3167 2.05 11.5583 2.66667Z" stroke="black" stroke-width="2" stroke-miterlimit="10" stroke-linecap="round" stroke-linejoin="round"/>
<path d="M12.5167 15.8833C12.5167 17.2583 11.3917 18.3833 10.0167 18.3833C9.33333 18.3833 8.7 18.1 8.25 17.65C7.8 17.2 7.51666 16.5667 7.51666 15.8833" stroke="black" stroke-width="2" stroke-miterlimit="10"/>
<circle cx="15" cy="5" r="4" fill="#FF4C1C"/>
</svg>
