<svg width="21" height="20" viewBox="0 0 21 20" fill="none" xmlns="http://www.w3.org/2000/svg">
<path d="M10.5 0C11.7819 0 13.0112 0.509225 13.9177 1.41565C14.8241 2.32208 15.3333 3.55145 15.3333 4.83333C15.3333 6.11521 14.8241 7.34459 13.9177 8.25102C13.0112 9.15744 11.7819 9.66667 10.5 9.66667C9.2181 9.66667 7.98872 9.15744 7.0823 8.25102C6.17587 7.34459 5.66665 6.11521 5.66665 4.83333C5.66665 3.55145 6.17587 2.32208 7.0823 1.41565C7.98872 0.509225 9.2181 0 10.5 0ZM10.5 12.0833C15.8408 12.0833 20.1666 14.2463 20.1666 16.9167V19.3333H0.833313V16.9167C0.833313 14.2463 5.15915 12.0833 10.5 12.0833Z" fill="#E0DC00"/>
</svg>
