<svg width="25" height="24" viewBox="0 0 25 24" fill="none" xmlns="http://www.w3.org/2000/svg">
<path d="M22.625 6.00002V8.42002C22.625 10 21.625 11 20.045 11H16.625V4.01002C16.625 2.90002 17.535 1.99002 18.645 2.00002C19.735 2.01002 20.735 2.45002 21.455 3.17002C22.175 3.90002 22.625 4.90002 22.625 6.00002Z" fill="black"/>
<path opacity="0.4" d="M2.625 7V21C2.625 21.83 3.565 22.3 4.225 21.8L5.935 20.52C6.335 20.22 6.895 20.26 7.255 20.62L8.915 22.29C9.305 22.68 9.945 22.68 10.335 22.29L12.015 20.61C12.365 20.26 12.925 20.22 13.315 20.52L15.025 21.8C15.685 22.29 16.625 21.82 16.625 21V4C16.625 2.9 17.525 2 18.625 2H7.625H6.625C3.625 2 2.625 3.79 2.625 6V7Z" fill="black"/>
<path d="M12.625 12.26H9.625C9.215 12.26 8.875 12.6 8.875 13.01C8.875 13.42 9.215 13.76 9.625 13.76H12.625C13.035 13.76 13.375 13.42 13.375 13.01C13.375 12.6 13.035 12.26 12.625 12.26Z" fill="black"/>
<path d="M9.625 9.76001H12.625C13.035 9.76001 13.375 9.42001 13.375 9.01001C13.375 8.60001 13.035 8.26001 12.625 8.26001H9.625C9.215 8.26001 8.875 8.60001 8.875 9.01001C8.875 9.42001 9.215 9.76001 9.625 9.76001Z" fill="black"/>
<path d="M6.595 8.01001C6.035 8.01001 5.595 8.46001 5.595 9.01001C5.595 9.56001 6.045 10.01 6.595 10.01C7.145 10.01 7.595 9.56001 7.595 9.01001C7.595 8.46001 7.145 8.01001 6.595 8.01001Z" fill="black"/>
<path d="M6.595 12.01C6.035 12.01 5.595 12.46 5.595 13.01C5.595 13.56 6.045 14.01 6.595 14.01C7.145 14.01 7.595 13.56 7.595 13.01C7.595 12.46 7.145 12.01 6.595 12.01Z" fill="black"/>
</svg>
