<svg width="24" height="24" viewBox="0 0 24 24" fill="none" xmlns="http://www.w3.org/2000/svg">
<path d="M23.998 11.978V12.001C23.998 18.628 18.626 24 11.999 24C9.24849 24.0041 6.58077 23.0593 4.44598 21.325L4.46798 21.343C4.34136 21.2406 4.23772 21.1127 4.16381 20.9676C4.08989 20.8225 4.04735 20.6635 4.03896 20.5009C4.03056 20.3382 4.0565 20.1757 4.11508 20.0237C4.17366 19.8718 4.26358 19.7339 4.37898 19.619L4.92398 19.074C5.12481 18.8706 5.39368 18.7485 5.67899 18.7312C5.9643 18.7138 6.24598 18.8024 6.46998 18.98L6.46798 18.978C8.03949 20.2286 9.98962 20.9074 11.998 20.903C13.4507 20.903 14.8813 20.5475 16.1651 19.8676C17.4488 19.1876 18.5467 18.2039 19.3629 17.0021C20.1791 15.8004 20.6888 14.4172 20.8476 12.9731C21.0064 11.5291 20.8094 10.0682 20.2739 8.71783C19.7383 7.36744 18.8804 6.16862 17.7751 5.22596C16.6698 4.2833 15.3506 3.62543 13.9326 3.30975C12.5146 2.99408 11.0409 3.03018 9.64005 3.41492C8.23922 3.79966 6.95381 4.52135 5.89598 5.51701L5.90098 5.51301L8.35698 7.96901C8.46516 8.07731 8.5388 8.21527 8.56858 8.36542C8.59837 8.51558 8.58296 8.67119 8.5243 8.81259C8.46564 8.95398 8.36637 9.07481 8.23905 9.15979C8.11172 9.24477 7.96206 9.29009 7.80898 9.29001H0.774977C0.569699 9.29001 0.372829 9.20846 0.227676 9.06331C0.0825228 8.91816 0.000976563 8.72129 0.000976562 8.51601V1.48201C0.00137217 1.32914 0.046968 1.17981 0.132028 1.05279C0.217088 0.925769 0.337812 0.826743 0.479013 0.768168C0.620214 0.709592 0.775585 0.694084 0.925578 0.723593C1.07557 0.753102 1.21349 0.826312 1.32198 0.934011L3.71098 3.32301C5.94129 1.18666 8.91157 -0.00409789 12 1.05963e-05C18.619 1.05963e-05 23.987 5.36001 23.999 11.976V11.977L23.998 11.978ZM15.245 15.789L15.72 15.178C15.9091 14.9353 15.994 14.6275 15.9561 14.3222C15.9183 14.0169 15.7606 13.7391 15.518 13.55L15.515 13.548L13.546 12.016V6.96801C13.546 6.32701 13.026 5.80601 12.384 5.80601H11.61C10.969 5.80601 10.448 6.32601 10.448 6.96801V13.528L13.613 15.989C13.7329 16.0832 13.8702 16.1529 14.0171 16.194C14.1639 16.2351 14.3174 16.2468 14.4688 16.2285C14.6202 16.2102 14.7665 16.1622 14.8994 16.0873C15.0322 16.0124 15.149 15.9121 15.243 15.792L15.245 15.789Z" fill="#E0DC00"/>
</svg>
