<svg width="30" height="30" viewBox="0 0 30 30" fill="none" xmlns="http://www.w3.org/2000/svg">
<path d="M27.5 21.2525C27.4999 22.9621 26.9158 24.6203 25.8443 25.9525C24.7729 27.2846 23.2785 28.2108 21.6088 28.5775L20.8113 26.185C21.5416 26.065 22.2362 25.7843 22.845 25.3632C23.4537 24.9421 23.9613 24.3911 24.3313 23.75H21.25C20.587 23.75 19.9511 23.4866 19.4822 23.0178C19.0134 22.5489 18.75 21.913 18.75 21.25V16.25C18.75 15.587 19.0134 14.9511 19.4822 14.4822C19.9511 14.0134 20.587 13.75 21.25 13.75H24.9225C24.6175 11.3336 23.4411 9.11159 21.6143 7.50085C19.7874 5.8901 17.4356 5.00135 15 5.00135C12.5644 5.00135 10.2126 5.8901 8.38572 7.50085C6.55885 9.11159 5.38254 11.3336 5.0775 13.75H8.75C9.41304 13.75 10.0489 14.0134 10.5178 14.4822C10.9866 14.9511 11.25 15.587 11.25 16.25V21.25C11.25 21.913 10.9866 22.5489 10.5178 23.0178C10.0489 23.4866 9.41304 23.75 8.75 23.75H5C4.33696 23.75 3.70107 23.4866 3.23223 23.0178C2.76339 22.5489 2.5 21.913 2.5 21.25V15C2.5 8.09625 8.09625 2.5 15 2.5C21.9037 2.5 27.5 8.09625 27.5 15V21.2525Z" fill="black"/>
</svg>
