<svg width="25" height="24" viewBox="0 0 25 24" fill="none" xmlns="http://www.w3.org/2000/svg">
<path opacity="0.4" d="M2.875 12.88V11.12C2.875 10.08 3.725 9.22 4.775 9.22C6.585 9.22 7.325 7.94 6.415 6.37C5.895 5.47 6.205 4.3 7.115 3.78L8.845 2.79C9.635 2.32 10.655 2.6 11.125 3.39L11.235 3.58C12.135 5.15 13.615 5.15 14.525 3.58L14.635 3.39C15.105 2.6 16.125 2.32 16.915 2.79L18.645 3.78C19.555 4.3 19.865 5.47 19.345 6.37C18.435 7.94 19.175 9.22 20.985 9.22C22.025 9.22 22.885 10.07 22.885 11.12V12.88C22.885 13.92 22.035 14.78 20.985 14.78C19.175 14.78 18.435 16.06 19.345 17.63C19.865 18.54 19.555 19.7 18.645 20.22L16.915 21.21C16.125 21.68 15.105 21.4 14.635 20.61L14.525 20.42C13.625 18.85 12.145 18.85 11.235 20.42L11.125 20.61C10.655 21.4 9.635 21.68 8.845 21.21L7.115 20.22C6.205 19.7 5.895 18.53 6.415 17.63C7.325 16.06 6.585 14.78 4.775 14.78C3.725 14.78 2.875 13.92 2.875 12.88Z" fill="black"/>
<path d="M12.875 15.25C14.6699 15.25 16.125 13.7949 16.125 12C16.125 10.2051 14.6699 8.75 12.875 8.75C11.0801 8.75 9.625 10.2051 9.625 12C9.625 13.7949 11.0801 15.25 12.875 15.25Z" fill="black"/>
</svg>
