<svg width="22" height="22" viewBox="0 0 22 22" fill="none" xmlns="http://www.w3.org/2000/svg">
<path d="M14.1075 4.77583L15.4 7.36083C15.5742 7.71833 16.0417 8.0575 16.4358 8.13083L18.7733 8.51583C20.2675 8.76333 20.6158 9.845 19.5433 10.9267L17.7192 12.7508C17.4167 13.0533 17.2425 13.6492 17.3433 14.08L17.8658 16.335C18.2783 18.1133 17.325 18.81 15.7575 17.875L13.5667 16.5733C13.1725 16.335 12.5125 16.335 12.1183 16.5733L9.92749 17.875C8.35999 18.8008 7.40665 18.1133 7.81915 16.335L8.34165 14.08C8.42415 13.64 8.24999 13.0442 7.94749 12.7417L6.12332 10.9175C5.05082 9.845 5.39915 8.76333 6.89332 8.50667L9.23082 8.12167C9.62499 8.0575 10.0925 7.70917 10.2667 7.35167L11.5592 4.76667C12.265 3.37333 13.4017 3.37333 14.1075 4.77583Z" fill="white"/>
<path d="M7.33331 5.27084H1.83331C1.45748 5.27084 1.14581 4.95918 1.14581 4.58334C1.14581 4.20751 1.45748 3.89584 1.83331 3.89584H7.33331C7.70915 3.89584 8.02081 4.20751 8.02081 4.58334C8.02081 4.95918 7.70915 5.27084 7.33331 5.27084Z" fill="white"/>
<path d="M4.58331 18.1042H1.83331C1.45748 18.1042 1.14581 17.7925 1.14581 17.4167C1.14581 17.0408 1.45748 16.7292 1.83331 16.7292H4.58331C4.95915 16.7292 5.27081 17.0408 5.27081 17.4167C5.27081 17.7925 4.95915 18.1042 4.58331 18.1042Z" fill="white"/>
<path d="M2.74998 11.6875H1.83331C1.45748 11.6875 1.14581 11.3758 1.14581 11C1.14581 10.6242 1.45748 10.3125 1.83331 10.3125H2.74998C3.12581 10.3125 3.43748 10.6242 3.43748 11C3.43748 11.3758 3.12581 11.6875 2.74998 11.6875Z" fill="white"/>
</svg>
