<svg width="147" height="38" viewBox="0 0 147 38" fill="none" xmlns="http://www.w3.org/2000/svg">
<path d="M14.8868 3.71158C15.6304 2.60939 16.8731 1.94873 18.2027 1.94873H29.0933C32.2981 1.94873 34.2016 5.52918 32.4092 8.18588L22.7048 22.5697C21.9611 23.6719 20.7185 24.3326 19.3889 24.3326H8.49829C5.2935 24.3326 3.39 20.7521 5.1824 18.0954L14.8868 3.71158Z" fill="#FF4C1C"/>
<path d="M19.1022 26.4071C17.7726 26.4071 16.5299 27.0678 15.7863 28.17L15.3344 28.8398C13.542 31.4965 15.4455 35.0769 18.6503 35.0769H30.5153C31.8449 35.0769 33.0875 34.4163 33.8312 33.3141L43.5356 18.9302C45.328 16.2735 43.4245 12.6931 40.2197 12.6931H33.9904C32.6608 12.6931 31.4182 13.3537 30.6745 14.4559L23.8007 24.6442C23.0571 25.7464 21.8144 26.4071 20.4848 26.4071H19.1022Z" fill="#FFC529"/>
<path d="M63.4179 11.9C64.8979 11.9 66.1913 12.2 67.2979 12.8C68.4179 13.3867 69.2779 14.2133 69.8779 15.28C70.4779 16.3467 70.7779 17.5667 70.7779 18.94C70.7779 20.3 70.4713 21.5133 69.8579 22.58C69.2579 23.6467 68.3979 24.4867 67.2779 25.1C66.1713 25.7 64.8846 26 63.4179 26H57.8379V11.9H63.4179ZM63.1179 22.54C64.2646 22.54 65.1646 22.2267 65.8179 21.6C66.4713 20.9733 66.7979 20.0867 66.7979 18.94C66.7979 17.78 66.4713 16.8867 65.8179 16.26C65.1646 15.62 64.2646 15.3 63.1179 15.3H61.7579V22.54H63.1179ZM83.265 20.26C83.265 20.5667 83.245 20.8733 83.205 21.18H75.785C75.825 21.7933 75.9916 22.2533 76.285 22.56C76.5916 22.8533 76.9783 23 77.445 23C78.0983 23 78.565 22.7067 78.845 22.12H83.025C82.8516 22.8933 82.5116 23.5867 82.005 24.2C81.5116 24.8 80.885 25.2733 80.125 25.62C79.365 25.9667 78.525 26.14 77.605 26.14C76.4983 26.14 75.5116 25.9067 74.645 25.44C73.7916 24.9733 73.1183 24.3067 72.625 23.44C72.145 22.5733 71.905 21.5533 71.905 20.38C71.905 19.2067 72.145 18.1933 72.625 17.34C73.105 16.4733 73.7716 15.8067 74.625 15.34C75.4916 14.8733 76.485 14.64 77.605 14.64C78.7116 14.64 79.6916 14.8667 80.545 15.32C81.3983 15.7733 82.065 16.4267 82.545 17.28C83.025 18.12 83.265 19.1133 83.265 20.26ZM79.265 19.28C79.265 18.8 79.105 18.4267 78.785 18.16C78.465 17.88 78.065 17.74 77.585 17.74C77.105 17.74 76.7116 17.8733 76.405 18.14C76.0983 18.3933 75.8983 18.7733 75.805 19.28H79.265ZM88.7892 11.2V26H84.8692V11.2H88.7892ZM93.0015 13.74C92.3082 13.74 91.7482 13.5533 91.3215 13.18C90.9082 12.7933 90.7015 12.3133 90.7015 11.74C90.7015 11.1533 90.9082 10.6667 91.3215 10.28C91.7482 9.89333 92.3082 9.7 93.0015 9.7C93.6815 9.7 94.2282 9.89333 94.6415 10.28C95.0682 10.6667 95.2815 11.1533 95.2815 11.74C95.2815 12.3133 95.0682 12.7933 94.6415 13.18C94.2282 13.5533 93.6815 13.74 93.0015 13.74ZM94.9415 14.78V26H91.0215V14.78H94.9415ZM96.5339 20.38C96.5339 19.22 96.7739 18.2067 97.2539 17.34C97.7339 16.4733 98.4006 15.8067 99.2539 15.34C100.121 14.8733 101.107 14.64 102.214 14.64C103.641 14.64 104.841 15.0333 105.814 15.82C106.787 16.5933 107.414 17.68 107.694 19.08H103.534C103.294 18.3467 102.827 17.98 102.134 17.98C101.641 17.98 101.247 18.1867 100.954 18.6C100.674 19 100.534 19.5933 100.534 20.38C100.534 21.1667 100.674 21.7667 100.954 22.18C101.247 22.5933 101.641 22.8 102.134 22.8C102.841 22.8 103.307 22.4333 103.534 21.7H107.694C107.414 23.0867 106.787 24.1733 105.814 24.96C104.841 25.7467 103.641 26.14 102.214 26.14C101.107 26.14 100.121 25.9067 99.2539 25.44C98.4006 24.9733 97.7339 24.3067 97.2539 23.44C96.7739 22.5733 96.5339 21.5533 96.5339 20.38ZM114.542 26.14C113.422 26.14 112.416 25.9067 111.522 25.44C110.642 24.9733 109.949 24.3067 109.442 23.44C108.936 22.5733 108.682 21.5533 108.682 20.38C108.682 19.22 108.936 18.2067 109.442 17.34C109.962 16.4733 110.662 15.8067 111.542 15.34C112.436 14.8733 113.442 14.64 114.562 14.64C115.682 14.64 116.682 14.8733 117.562 15.34C118.456 15.8067 119.156 16.4733 119.662 17.34C120.182 18.2067 120.442 19.22 120.442 20.38C120.442 21.54 120.182 22.56 119.662 23.44C119.156 24.3067 118.456 24.9733 117.562 25.44C116.669 25.9067 115.662 26.14 114.542 26.14ZM114.542 22.74C115.089 22.74 115.542 22.54 115.902 22.14C116.276 21.7267 116.462 21.14 116.462 20.38C116.462 19.62 116.276 19.04 115.902 18.64C115.542 18.24 115.096 18.04 114.562 18.04C114.029 18.04 113.582 18.24 113.222 18.64C112.862 19.04 112.682 19.62 112.682 20.38C112.682 21.1533 112.856 21.74 113.202 22.14C113.549 22.54 113.996 22.74 114.542 22.74ZM127.257 26.14C126.137 26.14 125.131 25.9067 124.237 25.44C123.357 24.9733 122.664 24.3067 122.157 23.44C121.651 22.5733 121.397 21.5533 121.397 20.38C121.397 19.22 121.651 18.2067 122.157 17.34C122.677 16.4733 123.377 15.8067 124.257 15.34C125.151 14.8733 126.157 14.64 127.277 14.64C128.397 14.64 129.397 14.8733 130.277 15.34C131.171 15.8067 131.871 16.4733 132.377 17.34C132.897 18.2067 133.157 19.22 133.157 20.38C133.157 21.54 132.897 22.56 132.377 23.44C131.871 24.3067 131.171 24.9733 130.277 25.44C129.384 25.9067 128.377 26.14 127.257 26.14ZM127.257 22.74C127.804 22.74 128.257 22.54 128.617 22.14C128.991 21.7267 129.177 21.14 129.177 20.38C129.177 19.62 128.991 19.04 128.617 18.64C128.257 18.24 127.811 18.04 127.277 18.04C126.744 18.04 126.297 18.24 125.937 18.64C125.577 19.04 125.397 19.62 125.397 20.38C125.397 21.1533 125.571 21.74 125.917 22.14C126.264 22.54 126.711 22.74 127.257 22.74ZM141.772 26L138.672 21.4V26H134.752V11.2H138.672V19.18L141.772 14.78H146.472L142.052 20.42L146.552 26H141.772Z" fill="black"/>
</svg>
